<svg xmlns="http://www.w3.org/2000/svg" viewBox="0 0 80 80" fill="none" stroke="currentColor" stroke-width="1.5" stroke-linecap="round" stroke-linejoin="round">
  <path d="M40 72 V32"/>
  <path d="M40 32 C 30 26 24 18 26 8"/>
  <path d="M40 32 C 50 26 56 18 54 8"/>
  <path d="M40 32 C 32 28 28 22 30 14"/>
  <path d="M40 32 C 48 28 52 22 50 14"/>
  <path d="M40 44 C 34 40 30 34 32 28"/>
  <path d="M40 44 C 46 40 50 34 48 28"/>
  <circle cx="26" cy="8" r="1.2"/>
  <circle cx="54" cy="8" r="1.2"/>
  <circle cx="30" cy="14" r="1"/>
  <circle cx="50" cy="14" r="1"/>
  <circle cx="32" cy="28" r="0.9"/>
  <circle cx="48" cy="28" r="0.9"/>
</svg>
