<svg xmlns="http://www.w3.org/2000/svg" viewBox="0 0 80 80" fill="none" stroke="currentColor" stroke-width="1.5" stroke-linecap="round" stroke-linejoin="round">
  <path d="M40 8 V36"/>
  <path d="M28 18 C 32 22 36 26 40 28"/>
  <path d="M52 18 C 48 22 44 26 40 28"/>
  <path d="M30 36 C 34 38 38 38 40 36 C 42 38 46 38 50 36 C 52 42 50 50 44 56 C 48 62 46 70 40 72 C 34 70 32 62 36 56 C 30 50 28 42 30 36 Z"/>
  <path d="M34 44 L36 50"/>
  <path d="M44 50 L46 56"/>
  <path d="M40 48 L40 60"/>
</svg>
