<svg xmlns="http://www.w3.org/2000/svg" viewBox="0 0 80 80" fill="none" stroke="currentColor" stroke-width="1.5" stroke-linecap="round" stroke-linejoin="round">
  <path d="M40 70 C 38 56 38 42 40 28 C 42 18 46 12 50 8"/>
  <path d="M40 56 C 32 54 26 50 22 44 C 28 42 34 46 38 52"/>
  <path d="M40 56 C 48 54 54 50 58 44 C 52 42 46 46 42 52"/>
  <path d="M40 42 C 34 40 30 36 28 30 C 32 28 38 32 40 38"/>
  <path d="M40 42 C 46 40 50 36 52 30 C 48 28 42 32 40 38"/>
  <path d="M40 28 C 36 26 34 22 34 18 C 38 18 40 22 40 26"/>
  <path d="M40 28 C 44 26 46 22 46 18 C 42 18 40 22 40 26"/>
</svg>
