<svg xmlns="http://www.w3.org/2000/svg" id="Layer_1" data-name="Layer 1" viewBox="0 0 278.21 157.98"><defs><style>.cls-1{fill:currentColor}</style></defs><path d="M123.28 95.47c2.48 5.52 4.85 11.09 7.49 16.53 1.34 2.78 4.51 5.75 1.57 8.44a13.46 13.46 0 0 1-9.17 3.25c-3.39-.26-7-2.17-9.82-4.32-11.87-9.13-19.1-21.19-20.92-36.16-.79-6.51.55-12.6 5.5-17.44 3-2.92 6.58-3.73 10-1.62 9.64 5.9 18 3.41 26.21-3 10.27-8 21.81-11.64 34.62-7.72 8.8 2.69 15 8.7 17 18 .57 2.73 0 6.67-1.69 8.53-1 1.13-5.68.08-8-1.24-12.91-7.4-26.07-7.41-39.28-1.52-8.4 3.74-12.5 10.31-12.32 17.74Z" class="cls-1"/><path d="M135.08 127.59c9.43-4.76 10.16-6.93 5.8-16.2-1.34-2.86-3.34-5.57-3.93-8.58-.46-2.36 0-5.83 1.46-7.42 2.43-2.58 5.16-.5 7.19 1.74a43 43 0 0 1 2.86 3.46c6.54 9 14.38 15.39 26.82 12.39-5.87 14.7-26.53 22.02-40.2 14.61" class="cls-1"/><path d="M180.85 95.62a11.77 11.77 0 0 1-12.16 12.25 12.13 12.13 0 0 1-12.43-12.13 12.37 12.37 0 0 1 12.31-12.35 12 12 0 0 1 12.28 12.23m-61-58.62a12.09 12.09 0 0 1 11.8 12.32 12.23 12.23 0 0 1-12.85 11.84 11.88 11.88 0 0 1-11.91-12.6c.29-6.95 5.74-11.8 12.96-11.56m21.25 9.14 14.5-14.39-.65-.88-16.72 12.88c3.84-10.8 12.51-14.37 22.46-16.29 2.56 8-6.18 17.34-18.38 19.82Z" class="cls-1"/></svg>